<svg xmlns="http://www.w3.org/2000/svg" version="1.1" xmlns:xlink="http://www.w3.org/1999/xlink" xmlns:svgjs="http://svgjs.dev/svgjs" width="2000" height="3153" viewBox="0 0 2000 3153"><g transform="matrix(1,0,0,1,-2.626325942844005,-3.8397262577263973)"><svg viewBox="0 0 208 328" data-background-color="#ffffff" preserveAspectRatio="xMidYMid meet" height="3153" width="2000" xmlns="http://www.w3.org/2000/svg" xmlns:xlink="http://www.w3.org/1999/xlink"><g id="tight-bounds" transform="matrix(1,0,0,1,0.27313789805577926,0.3994386972833013)"><svg viewBox="0 0 207.45372420388844 327.2" height="327.2" width="207.45372420388844"><g><svg viewBox="0 0 349.77759316345 551.6759408503098" height="327.2" width="207.45372420388844"><g transform="matrix(1,0,0,1,0,224.47594085030977)"><svg viewBox="0 0 349.77759316345 327.2" height="327.2" width="349.77759316345"><g id="textblocktransform"><svg viewBox="0 0 349.77759316345 327.2" height="327.2" width="349.77759316345" id="textblock"><g><svg viewBox="0 0 349.77759316345 327.2" height="327.2" width="349.77759316345"><g transform="matrix(1,0,0,1,0,0)"><svg width="349.77759316345" viewBox="18.92471467353766 -4.0123473513333785 29.433107005835186 27.533231112215123" height="327.2" data-palette-color="#755bb4"><path d="M20.663 23.52c-0.486 0.018-0.738-0.197-0.753-0.643v0l-0.095-2.588-0.274-11.118c-0.031-0.839-0.143-2.363-0.337-4.571v0l-0.278-4.072c-0.014-0.38 0.122-0.575 0.409-0.585v0c0.113-0.004 0.304 0.022 0.573 0.079 0.269 0.057 0.48 0.083 0.633 0.077v0c0.623 0.071 1.364 0.09 2.224 0.059v0c0.6-0.022 1.161-0.076 1.685-0.161v0c0.331-0.059 0.565-0.047 0.702 0.034 0.137 0.088 0.208 0.229 0.215 0.422v0c0.006 0.16-0.005 0.324-0.032 0.492-0.027 0.161-0.038 0.342-0.03 0.541v0l-0.005 1.802c-0.021 1.815-0.014 3.176 0.019 4.082v0l0.252 5.004c0.049 0.799 0.089 1.618 0.12 2.457v0l0.071 3.62-0.016 0.661 0.074 0.928 0.102 1.157 4.753-0.003 3.949-0.114 0.07-0.002c0.127-0.005 0.204 0.016 0.232 0.061 0.021 0.039 0.027 0.099 0.017 0.18-0.004 0.08-0.005 0.14-0.004 0.18v0c-0.024 0.088-0.014 0.254 0.029 0.499 0.042 0.239 0.067 0.458 0.073 0.658v0c0.006 0.16-0.044 0.262-0.148 0.306-0.112 0.051-0.251 0.073-0.418 0.065-0.167-0.001-0.293 0.001-0.381 0.004v0l-1.762-0.036c-1.55-0.077-2.646-0.104-3.285-0.081v0c-0.713 0.026-2.503 0.158-5.369 0.396v0zM44.713 17.046c-1.229 0.75-2.687 1.011-4.373 0.782-1.68-0.232-3.346-0.934-4.998-2.105-1.646-1.175-3.051-2.715-4.213-4.621v0c-1.153-1.889-1.867-3.789-2.142-5.699-0.266-1.907-0.15-3.599 0.348-5.074 0.501-1.47 1.293-2.534 2.374-3.194v0c1.337-0.816 2.589-1.197 3.754-1.142 1.16 0.058 2.075 0.233 2.747 0.526v0c0.143 0.069 0.277 0.128 0.401 0.177 0.127 0.055 0.219 0.128 0.274 0.22v0c0.069 0.114 0.056 0.329-0.04 0.645v0c-0.454 1.214-0.713 2.192-0.776 2.933v0c-0.038 0.359-0.087 0.639-0.144 0.838-0.06 0.209-0.156 0.353-0.287 0.433v0c-0.131 0.08-0.339 0.078-0.624-0.006v0c-0.666-0.195-1.161-0.315-1.485-0.359-0.327-0.05-0.642 0.017-0.943 0.201v0c-0.472 0.288-0.817 0.772-1.036 1.451-0.224 0.683-0.215 1.58 0.026 2.691 0.235 1.114 0.79 2.388 1.664 3.822v0c0.854 1.4 1.736 2.385 2.646 2.955 0.904 0.573 1.714 0.864 2.43 0.872 0.718-0.001 1.265-0.116 1.64-0.345v0c0.341-0.208 0.62-0.539 0.837-0.991 0.213-0.458 0.37-0.897 0.472-1.319v0c0.016-0.064 0.038-0.168 0.068-0.311 0.026-0.149 0.076-0.246 0.15-0.291v0c0.097-0.059 0.233-0.091 0.41-0.097v0l3.219-0.137c0.098-0.005 0.249-0.027 0.453-0.065 0.201-0.029 0.35-0.034 0.447-0.016 0.103 0.015 0.184 0.071 0.243 0.168v0c0.056 0.091 0.09 0.211 0.102 0.36v0c0.012 0.953-0.202 2.068-0.642 3.344-0.436 1.282-1.437 2.4-3.002 3.354z" opacity="1" transform="matrix(1,0,0,1,0,0)" fill="#755bb4" class="wordmark-text-0" data-fill-palette-color="primary" id="text-0"></path></svg></g></svg></g></svg></g></svg></g><g transform="matrix(1,0,0,1,66.80752029421895,0)"><svg viewBox="0 0 216.16255257501209 190.44069277203582" height="190.44069277203582" width="216.16255257501209"><g><svg xmlns="http://www.w3.org/2000/svg" xmlns:xlink="http://www.w3.org/1999/xlink" version="1.1" x="0" y="0" viewBox="6.3 11.5 87.4 77" style="enable-background:new 0 0 100 100;" xml:space="preserve" height="190.44069277203582" width="216.16255257501209" class="icon-icon-0" data-fill-palette-color="accent" id="icon-0"><path d="M72.3 12.3L71.9 11.5H28.2L6.3 50 28.1 88.5H71.8L93.7 50zM33.3 25.3L9.9 47.7 28.5 14.9zM70.7 14.8L77.1 50.5 36.9 25.8zM35.5 27.3L76.5 52.5 35.5 75.8zM77 54.5L69.8 85.3 37.2 77.2zM33.5 75L9.9 50.5 33.5 27.8zM33.2 77.6L28.6 85.3 11.5 55.1zM35 78.6L66.4 86.5H30.2zM79.3 53.3L90.9 50.8 72.1 84zM90.7 48.9L79.3 51.4 73.4 18.3zM35 24.3L30 13.5H68.2z" fill="#755bb4" data-fill-palette-color="accent"></path></svg></g></svg></g><g></g></svg></g><defs></defs></svg><rect width="207.45372420388844" height="327.2" fill="none" stroke="none" visibility="hidden"></rect></g></svg></g></svg>